<mxfile host="app.diagrams.net" agent="Mozilla/5.0 (Windows NT 10.0; Win64; x64; rv:143.0) Gecko/20100101 Firefox/143.0" version="28.2.4">
  <diagram name="Page-1" id="2YBvvXClWsGukQMizWep">
    <mxGraphModel dx="1317" dy="655" grid="1" gridSize="10" guides="1" tooltips="1" connect="1" arrows="1" fold="1" page="1" pageScale="1" pageWidth="850" pageHeight="1100" math="0" shadow="0">
      <root>
        <mxCell id="0" />
        <mxCell id="1" parent="0" />
        <mxCell id="6hi_jSXRFuT11YZ6cPg5-13" value="" style="group;movable=1;resizable=1;rotatable=1;deletable=1;editable=1;locked=0;connectable=1;" vertex="1" connectable="0" parent="1">
          <mxGeometry x="90" y="130" width="190" height="600" as="geometry" />
        </mxCell>
        <mxCell id="6hi_jSXRFuT11YZ6cPg5-11" value="Vizitator" style="html=1;points=[[0,0,0,0,5],[0,1,0,0,-5],[1,0,0,0,5],[1,1,0,0,-5]];perimeter=orthogonalPerimeter;outlineConnect=0;targetShapes=umlLifeline;portConstraint=eastwest;newEdgeStyle={&quot;curved&quot;:0,&quot;rounded&quot;:0};" vertex="1" parent="6hi_jSXRFuT11YZ6cPg5-13">
          <mxGeometry width="190" height="60.00000000000001" as="geometry" />
        </mxCell>
        <mxCell id="6hi_jSXRFuT11YZ6cPg5-12" value="" style="html=1;points=[[0,0,0,0,5],[0,1,0,0,-5],[1,0,0,0,5],[1,1,0,0,-5]];perimeter=orthogonalPerimeter;outlineConnect=0;targetShapes=umlLifeline;portConstraint=eastwest;newEdgeStyle={&quot;curved&quot;:0,&quot;rounded&quot;:0};" vertex="1" parent="6hi_jSXRFuT11YZ6cPg5-13">
          <mxGeometry y="60" width="190" height="420" as="geometry" />
        </mxCell>
        <mxCell id="6hi_jSXRFuT11YZ6cPg5-34" value="Vizualizeaza detalii mașină" style="rounded=1;whiteSpace=wrap;html=1;" vertex="1" parent="6hi_jSXRFuT11YZ6cPg5-13">
          <mxGeometry x="35" y="369.9961016949153" width="120" height="40.67796610169492" as="geometry" />
        </mxCell>
        <mxCell id="6hi_jSXRFuT11YZ6cPg5-36" value="" style="ellipse;html=1;shape=endState;fillColor=#000000;strokeColor=#ff0000;" vertex="1" parent="6hi_jSXRFuT11YZ6cPg5-13">
          <mxGeometry x="80" y="431.01305084745763" width="30" height="30.508474576271187" as="geometry" />
        </mxCell>
        <mxCell id="6hi_jSXRFuT11YZ6cPg5-37" style="edgeStyle=orthogonalEdgeStyle;rounded=0;orthogonalLoop=1;jettySize=auto;html=1;entryX=0.5;entryY=0;entryDx=0;entryDy=0;" edge="1" parent="6hi_jSXRFuT11YZ6cPg5-13" source="6hi_jSXRFuT11YZ6cPg5-34" target="6hi_jSXRFuT11YZ6cPg5-36">
          <mxGeometry relative="1" as="geometry" />
        </mxCell>
        <mxCell id="6hi_jSXRFuT11YZ6cPg5-55" value="Apasă „Vezi automobile”" style="rounded=1;whiteSpace=wrap;html=1;" vertex="1" parent="6hi_jSXRFuT11YZ6cPg5-13">
          <mxGeometry x="35" y="250" width="120" height="40" as="geometry" />
        </mxCell>
        <mxCell id="6hi_jSXRFuT11YZ6cPg5-82" style="edgeStyle=orthogonalEdgeStyle;rounded=0;orthogonalLoop=1;jettySize=auto;html=1;" edge="1" parent="6hi_jSXRFuT11YZ6cPg5-13" source="6hi_jSXRFuT11YZ6cPg5-78" target="6hi_jSXRFuT11YZ6cPg5-34">
          <mxGeometry relative="1" as="geometry" />
        </mxCell>
        <mxCell id="6hi_jSXRFuT11YZ6cPg5-78" value="Selectează o mașină" style="rounded=1;whiteSpace=wrap;html=1;" vertex="1" parent="6hi_jSXRFuT11YZ6cPg5-13">
          <mxGeometry x="35" y="310" width="120" height="40" as="geometry" />
        </mxCell>
        <mxCell id="6hi_jSXRFuT11YZ6cPg5-17" value="" style="group;movable=1;resizable=1;rotatable=1;deletable=1;editable=1;locked=0;connectable=1;" vertex="1" connectable="0" parent="1">
          <mxGeometry x="280" y="130" width="190" height="600" as="geometry" />
        </mxCell>
        <mxCell id="6hi_jSXRFuT11YZ6cPg5-18" value="Site" style="html=1;points=[[0,0,0,0,5],[0,1,0,0,-5],[1,0,0,0,5],[1,1,0,0,-5]];perimeter=orthogonalPerimeter;outlineConnect=0;targetShapes=umlLifeline;portConstraint=eastwest;newEdgeStyle={&quot;curved&quot;:0,&quot;rounded&quot;:0};" vertex="1" parent="6hi_jSXRFuT11YZ6cPg5-17">
          <mxGeometry width="190" height="59.99999999999999" as="geometry" />
        </mxCell>
        <mxCell id="6hi_jSXRFuT11YZ6cPg5-19" value="" style="html=1;points=[[0,0,0,0,5],[0,1,0,0,-5],[1,0,0,0,5],[1,1,0,0,-5]];perimeter=orthogonalPerimeter;outlineConnect=0;targetShapes=umlLifeline;portConstraint=eastwest;newEdgeStyle={&quot;curved&quot;:0,&quot;rounded&quot;:0};" vertex="1" parent="6hi_jSXRFuT11YZ6cPg5-17">
          <mxGeometry y="60" width="190" height="420" as="geometry" />
        </mxCell>
        <mxCell id="6hi_jSXRFuT11YZ6cPg5-38" value="Generează listă de automobile" style="rounded=1;whiteSpace=wrap;html=1;" vertex="1" parent="6hi_jSXRFuT11YZ6cPg5-17">
          <mxGeometry x="50" y="309.68" width="120" height="40.32" as="geometry" />
        </mxCell>
        <mxCell id="6hi_jSXRFuT11YZ6cPg5-75" style="edgeStyle=orthogonalEdgeStyle;rounded=0;orthogonalLoop=1;jettySize=auto;html=1;entryX=0.5;entryY=0;entryDx=0;entryDy=0;" edge="1" parent="6hi_jSXRFuT11YZ6cPg5-17" source="6hi_jSXRFuT11YZ6cPg5-72" target="6hi_jSXRFuT11YZ6cPg5-38">
          <mxGeometry relative="1" as="geometry" />
        </mxCell>
        <mxCell id="6hi_jSXRFuT11YZ6cPg5-72" value="" style="rhombus;aspect=fixed;" vertex="1" parent="6hi_jSXRFuT11YZ6cPg5-17">
          <mxGeometry x="100.32" y="260.32" width="19.35483870967742" height="19.35483870967742" as="geometry" />
        </mxCell>
        <mxCell id="6hi_jSXRFuT11YZ6cPg5-44" value="Extrage filtre" style="rounded=1;whiteSpace=wrap;html=1;" vertex="1" parent="6hi_jSXRFuT11YZ6cPg5-17">
          <mxGeometry x="50" y="175" width="120" height="30" as="geometry" />
        </mxCell>
        <mxCell id="6hi_jSXRFuT11YZ6cPg5-21" value="" style="ellipse;html=1;shape=startState;fillColor=#000000;strokeColor=#ff0000;" vertex="1" parent="1">
          <mxGeometry x="170" y="190" width="30" height="30" as="geometry" />
        </mxCell>
        <mxCell id="6hi_jSXRFuT11YZ6cPg5-22" value="" style="edgeStyle=orthogonalEdgeStyle;html=1;verticalAlign=bottom;endArrow=open;endSize=8;strokeColor=#ff0000;rounded=0;entryX=0.5;entryY=0;entryDx=0;entryDy=0;" edge="1" source="6hi_jSXRFuT11YZ6cPg5-21" parent="1" target="6hi_jSXRFuT11YZ6cPg5-23">
          <mxGeometry relative="1" as="geometry">
            <mxPoint x="185" y="230" as="targetPoint" />
          </mxGeometry>
        </mxCell>
        <mxCell id="6hi_jSXRFuT11YZ6cPg5-29" style="edgeStyle=orthogonalEdgeStyle;rounded=0;orthogonalLoop=1;jettySize=auto;html=1;entryX=0.5;entryY=0;entryDx=0;entryDy=0;" edge="1" parent="1" source="6hi_jSXRFuT11YZ6cPg5-23" target="6hi_jSXRFuT11YZ6cPg5-24">
          <mxGeometry relative="1" as="geometry" />
        </mxCell>
        <mxCell id="6hi_jSXRFuT11YZ6cPg5-23" value="Accesează pagina web" style="rounded=1;whiteSpace=wrap;html=1;" vertex="1" parent="1">
          <mxGeometry x="125" y="240" width="120" height="40" as="geometry" />
        </mxCell>
        <mxCell id="6hi_jSXRFuT11YZ6cPg5-39" style="edgeStyle=orthogonalEdgeStyle;rounded=0;orthogonalLoop=1;jettySize=auto;html=1;entryX=0;entryY=0.5;entryDx=0;entryDy=0;" edge="1" parent="1" source="6hi_jSXRFuT11YZ6cPg5-24" target="6hi_jSXRFuT11YZ6cPg5-44">
          <mxGeometry relative="1" as="geometry" />
        </mxCell>
        <mxCell id="6hi_jSXRFuT11YZ6cPg5-40" value="[Folosește filtre]" style="edgeLabel;html=1;align=center;verticalAlign=middle;resizable=0;points=[];" vertex="1" connectable="0" parent="6hi_jSXRFuT11YZ6cPg5-39">
          <mxGeometry x="-0.1905" y="-1" relative="1" as="geometry">
            <mxPoint x="-4" y="-14" as="offset" />
          </mxGeometry>
        </mxCell>
        <mxCell id="6hi_jSXRFuT11YZ6cPg5-24" value="" style="rhombus;aspect=fixed;" vertex="1" parent="1">
          <mxGeometry x="175" y="310" width="20" height="20" as="geometry" />
        </mxCell>
        <mxCell id="6hi_jSXRFuT11YZ6cPg5-33" style="edgeStyle=orthogonalEdgeStyle;rounded=0;orthogonalLoop=1;jettySize=auto;html=1;" edge="1" parent="1" source="6hi_jSXRFuT11YZ6cPg5-24" target="6hi_jSXRFuT11YZ6cPg5-30">
          <mxGeometry relative="1" as="geometry">
            <mxPoint x="185" y="370" as="targetPoint" />
          </mxGeometry>
        </mxCell>
        <mxCell id="6hi_jSXRFuT11YZ6cPg5-41" value="[Fără filtre]" style="edgeLabel;html=1;align=center;verticalAlign=middle;resizable=0;points=[];" vertex="1" connectable="0" parent="6hi_jSXRFuT11YZ6cPg5-33">
          <mxGeometry x="-0.0786" y="1" relative="1" as="geometry">
            <mxPoint as="offset" />
          </mxGeometry>
        </mxCell>
        <mxCell id="6hi_jSXRFuT11YZ6cPg5-49" style="edgeStyle=orthogonalEdgeStyle;rounded=0;orthogonalLoop=1;jettySize=auto;html=1;entryX=0;entryY=0.5;entryDx=0;entryDy=0;" edge="1" parent="1" source="6hi_jSXRFuT11YZ6cPg5-30" target="6hi_jSXRFuT11YZ6cPg5-47">
          <mxGeometry relative="1" as="geometry" />
        </mxCell>
        <mxCell id="6hi_jSXRFuT11YZ6cPg5-59" style="edgeStyle=orthogonalEdgeStyle;rounded=0;orthogonalLoop=1;jettySize=auto;html=1;entryX=0;entryY=0.5;entryDx=0;entryDy=0;" edge="1" parent="1" source="6hi_jSXRFuT11YZ6cPg5-55" target="6hi_jSXRFuT11YZ6cPg5-72">
          <mxGeometry relative="1" as="geometry" />
        </mxCell>
        <mxCell id="6hi_jSXRFuT11YZ6cPg5-51" style="edgeStyle=orthogonalEdgeStyle;rounded=0;orthogonalLoop=1;jettySize=auto;html=1;entryX=0.5;entryY=0;entryDx=0;entryDy=0;" edge="1" parent="1" source="6hi_jSXRFuT11YZ6cPg5-30" target="6hi_jSXRFuT11YZ6cPg5-50">
          <mxGeometry relative="1" as="geometry" />
        </mxCell>
        <mxCell id="6hi_jSXRFuT11YZ6cPg5-77" style="edgeStyle=orthogonalEdgeStyle;rounded=0;orthogonalLoop=1;jettySize=auto;html=1;entryX=1;entryY=0.5;entryDx=0;entryDy=0;" edge="1" parent="1" source="6hi_jSXRFuT11YZ6cPg5-38" target="6hi_jSXRFuT11YZ6cPg5-78">
          <mxGeometry relative="1" as="geometry">
            <mxPoint x="194.6748387096775" y="450.1586057955169" as="targetPoint" />
          </mxGeometry>
        </mxCell>
        <mxCell id="6hi_jSXRFuT11YZ6cPg5-30" value="" style="rhombus;aspect=fixed;" vertex="1" parent="1">
          <mxGeometry x="175" y="370" width="20" height="20" as="geometry" />
        </mxCell>
        <mxCell id="6hi_jSXRFuT11YZ6cPg5-53" style="edgeStyle=orthogonalEdgeStyle;rounded=0;orthogonalLoop=1;jettySize=auto;html=1;entryX=1;entryY=0.5;entryDx=0;entryDy=0;" edge="1" parent="1" source="6hi_jSXRFuT11YZ6cPg5-38" target="6hi_jSXRFuT11YZ6cPg5-50">
          <mxGeometry relative="1" as="geometry" />
        </mxCell>
        <mxCell id="6hi_jSXRFuT11YZ6cPg5-48" style="edgeStyle=orthogonalEdgeStyle;rounded=0;orthogonalLoop=1;jettySize=auto;html=1;entryX=0.5;entryY=0;entryDx=0;entryDy=0;" edge="1" parent="1" source="6hi_jSXRFuT11YZ6cPg5-47" target="6hi_jSXRFuT11YZ6cPg5-38">
          <mxGeometry relative="1" as="geometry" />
        </mxCell>
        <mxCell id="6hi_jSXRFuT11YZ6cPg5-47" value="" style="rhombus;aspect=fixed;" vertex="1" parent="1">
          <mxGeometry x="380" y="370" width="20" height="20" as="geometry" />
        </mxCell>
        <mxCell id="6hi_jSXRFuT11YZ6cPg5-52" style="edgeStyle=orthogonalEdgeStyle;rounded=0;orthogonalLoop=1;jettySize=auto;html=1;entryX=0.5;entryY=0;entryDx=0;entryDy=0;" edge="1" parent="1" source="6hi_jSXRFuT11YZ6cPg5-50" target="6hi_jSXRFuT11YZ6cPg5-34">
          <mxGeometry relative="1" as="geometry" />
        </mxCell>
        <mxCell id="6hi_jSXRFuT11YZ6cPg5-50" value="" style="rhombus;aspect=fixed;" vertex="1" parent="1">
          <mxGeometry x="175" y="430" width="20" height="20" as="geometry" />
        </mxCell>
        <mxCell id="6hi_jSXRFuT11YZ6cPg5-45" style="edgeStyle=orthogonalEdgeStyle;rounded=0;orthogonalLoop=1;jettySize=auto;html=1;entryX=0.5;entryY=0;entryDx=0;entryDy=0;" edge="1" parent="1" source="6hi_jSXRFuT11YZ6cPg5-44" target="6hi_jSXRFuT11YZ6cPg5-47">
          <mxGeometry relative="1" as="geometry">
            <mxPoint x="390" y="370" as="targetPoint" />
          </mxGeometry>
        </mxCell>
      </root>
    </mxGraphModel>
  </diagram>
</mxfile>
